<mxfile host="Electron" modified="2023-08-13T13:43:14.346Z" agent="Mozilla/5.0 (Windows NT 10.0; Win64; x64) AppleWebKit/537.36 (KHTML, like Gecko) draw.io/21.2.8 Chrome/112.0.5615.165 Electron/24.2.0 Safari/537.36" etag="Ss3uvyuPmcINOz7kKfTi" version="21.2.8" type="device">
  <diagram name="第 1 页" id="7PNIO0xc48R2k1wWzut6">
    <mxGraphModel dx="1436" dy="656" grid="1" gridSize="10" guides="1" tooltips="1" connect="1" arrows="1" fold="1" page="0" pageScale="1" pageWidth="827" pageHeight="1169" math="0" shadow="0">
      <root>
        <mxCell id="0" />
        <mxCell id="1" parent="0" />
        <mxCell id="7hS4GMTRW8yyBWekmGCy-21" value="个人中心" style="rounded=1;whiteSpace=wrap;html=1;fontSize=20;arcSize=8;verticalAlign=top;fontStyle=1;fillColor=#eeeeee;strokeColor=none;" parent="1" vertex="1">
          <mxGeometry x="-20" y="120" width="180" height="200" as="geometry" />
        </mxCell>
        <mxCell id="7hS4GMTRW8yyBWekmGCy-1" value="找房相关" style="rounded=1;whiteSpace=wrap;html=1;fontSize=20;arcSize=8;verticalAlign=top;fontStyle=1;fillColor=#eeeeee;strokeColor=none;" parent="1" vertex="1">
          <mxGeometry x="-220" y="120" width="180" height="200" as="geometry" />
        </mxCell>
        <mxCell id="7hS4GMTRW8yyBWekmGCy-10" value="&lt;strong style=&quot;box-sizing: border-box; font-family: &amp;quot;Open Sans&amp;quot;, &amp;quot;Clear Sans&amp;quot;, &amp;quot;Helvetica Neue&amp;quot;, Helvetica, Arial, &amp;quot;Segoe UI Emoji&amp;quot;, sans-serif; orphans: 4; text-align: left;&quot;&gt;房源检索&lt;/strong&gt;" style="rounded=0;whiteSpace=wrap;html=1;fontSize=16;fontStyle=1;fillColor=#dae8fc;strokeColor=none;" parent="1" vertex="1">
          <mxGeometry x="-200" y="170" width="140" height="40" as="geometry" />
        </mxCell>
        <mxCell id="7hS4GMTRW8yyBWekmGCy-12" value="&lt;strong style=&quot;box-sizing: border-box; font-family: &amp;quot;Open Sans&amp;quot;, &amp;quot;Clear Sans&amp;quot;, &amp;quot;Helvetica Neue&amp;quot;, Helvetica, Arial, &amp;quot;Segoe UI Emoji&amp;quot;, sans-serif; orphans: 4; text-align: left;&quot;&gt;租约管理&lt;/strong&gt;" style="rounded=0;whiteSpace=wrap;html=1;fontSize=16;fontStyle=1;fillColor=#b0e3e6;strokeColor=none;" parent="1" vertex="1">
          <mxGeometry x="10" y="220" width="120" height="40" as="geometry" />
        </mxCell>
        <mxCell id="7hS4GMTRW8yyBWekmGCy-14" value="浏览历史" style="rounded=0;whiteSpace=wrap;html=1;fontSize=16;fontStyle=1;fillColor=#d0cee2;strokeColor=none;" parent="1" vertex="1">
          <mxGeometry x="10" y="270" width="120" height="40" as="geometry" />
        </mxCell>
        <mxCell id="FT4xvmlv9GLsepcp8g-r-1" value="&lt;strong style=&quot;box-sizing: border-box; font-family: &amp;quot;Open Sans&amp;quot;, &amp;quot;Clear Sans&amp;quot;, &amp;quot;Helvetica Neue&amp;quot;, Helvetica, Arial, &amp;quot;Segoe UI Emoji&amp;quot;, sans-serif; orphans: 4; text-align: left;&quot;&gt;看房预约管理&lt;/strong&gt;" style="rounded=0;whiteSpace=wrap;html=1;fontSize=16;fontStyle=1;fillColor=#fff2cc;strokeColor=none;" vertex="1" parent="1">
          <mxGeometry x="10" y="170" width="120" height="40" as="geometry" />
        </mxCell>
      </root>
    </mxGraphModel>
  </diagram>
</mxfile>
